<svg width="1142" height="1333" viewBox="0 0 1142 1333" fill="none" xmlns="http://www.w3.org/2000/svg">
<path d="M87.5744 174.714C51.5212 234.12 50.7973 304.656 54.4483 338.78C58.8294 380.369 113.624 381.745 126.099 380.683C425.478 381.92 1004.26 401.758 1045.68 375.379C1079 354.162 1079 346.904 1079 305.894C1079 248.656 1032.72 168.349 976.584 101.516C931.677 48.0503 847.127 26.9043 810.465 23.0145C661.688 19.1248 344.42 15.9069 265.559 34.1532C166.983 56.9611 134.196 97.8931 87.5744 174.714Z" stroke="#CD2C1A" stroke-width="40"/>
<path d="M92.0932 1253.52C58.6947 1205.99 58.9685 1131.9 62.6495 1097.15C67.0666 1054.79 122.312 1053.39 134.888 1054.47C436.726 1053.21 1020.26 1033.01 1062.03 1059.87C1095.62 1081.48 1097.15 1101.51 1095.62 1130.64C1092.31 1193.48 1073.45 1232.37 1038.02 1264.24C998.403 1299.88 901.059 1307.28 864.096 1311.24C714.097 1315.2 426.151 1311.24 345.083 1311.24C233.478 1311.24 125.492 1301.06 92.0932 1253.52Z" stroke="#CD2C1A" stroke-width="40"/>
<path d="M76.0923 515.236C58.3598 519.716 38.8481 554.432 31.3088 571.23C26.6381 580.687 28 593.368 40.4998 586C42.6108 584.756 46.9998 582 58.4504 572.156C71.2829 561.123 84.6872 541.366 97.8056 543.537C105.444 544.8 127.209 564.386 138.97 578.696C146.359 585.747 166.926 598.853 190.087 594.872C219.038 589.894 228.085 560.031 252.512 544.477C276.939 528.923 300.915 539.5 307.7 547.588C310.117 550.469 331.223 579.318 358.817 594.872C386.338 610.385 404.86 591.858 429.642 567.069L429.837 566.875C454.717 541.988 464.216 537.011 475.525 533.278C486.834 529.545 522.57 573.718 552.426 591.761C582.282 609.803 609.423 576.829 634.303 551.321C654.207 530.914 676.975 537.426 685.872 543.233C699.895 552.386 718.442 594.374 745.583 599.849C779.51 606.693 805.679 578.673 807.556 576.829C810.723 573.718 832.436 546.966 855.054 538.256C877.672 529.545 904.813 553.187 916.122 570.608C927.431 588.028 952.311 594.872 970.405 593.005C988.5 591.139 1002.52 568.119 1008.86 562.52C1015.19 556.92 1018.36 543.233 1043.69 543.233C1069.02 543.233 1095.26 591.139 1100.68 588.028C1106.11 584.917 1107.47 585.539 1108.83 570.608C1110.18 555.676 1086.21 533.9 1064.04 516.48C1041.88 499.06 1022.88 514.614 995.738 543.233C968.596 571.852 942.359 558.165 916.122 533.9C889.886 509.636 879.481 504.66 855.054 504.66C830.627 504.66 797.604 557.542 771.82 570.608C746.036 583.673 726.132 545.099 713.918 533.9C701.704 522.702 689.038 508.392 663.254 504.66C637.469 500.928 596.305 562.52 565.997 563.764C535.689 565.008 507.19 513.993 480.049 504.66C452.907 495.328 410.385 555.676 381.887 569.364C353.388 583.052 347.96 525.191 300.01 507.771C252.06 490.35 230.347 535.145 203.657 555.676C176.968 576.208 148.017 558.165 133.994 535.145C119.971 512.125 98.2578 509.637 76.0923 515.236Z" stroke="#CD2C1A" stroke-width="40"/>
<path d="M63.6931 672.295C48.8558 672.792 45.7496 683.701 46.0512 689.093C44.9654 697.554 51.0271 703.402 54.1937 705.268C102.445 705.476 204.829 705.766 228.352 705.268C251.874 704.771 263.183 711.697 265.898 715.223L302.539 764.995H64.5979C37.642 764.995 20 797.073 20 834.402C19.9999 900.779 42.1656 941.688 76.3593 941.688C383.662 941.273 1006.59 940.692 1039.88 941.688C1081.5 942.932 1099.78 934.569 1114.52 900.625C1125.58 875.163 1120.4 831.291 1114.52 813.871C1103.4 780.897 1076.37 768.728 1059.79 766.862L449.103 760.64C454.682 752.137 468.102 732.27 477.149 720.822C486.196 709.375 496.902 704.854 501.124 704.024H1072.91C1081.5 704.024 1085.57 702.78 1088.74 687.848C1091.27 675.903 1077.13 672.502 1069.74 672.294C893.47 672.087 535.594 671.797 514.242 672.294C492.891 672.792 474.887 684.115 468.554 689.715L376.459 816.36L362.25 797.97C342.798 772.461 300.367 716.965 286.254 699.047C272.14 681.129 253.232 673.746 245.541 672.295C191.108 672.087 78.5305 671.797 63.6931 672.295Z" stroke="#CD2C1A" stroke-width="40"/>
<path d="M291.867 225.935L269.25 260.775" stroke="#CD2C1A" stroke-width="40" stroke-linecap="round"/>
<path d="M421.695 136.965L399.077 171.806" stroke="#CD2C1A" stroke-width="40" stroke-linecap="round"/>
<path d="M492.262 196.072L504.928 232.156" stroke="#CD2C1A" stroke-width="40" stroke-linecap="round"/>
<path d="M584.544 98.3896L578.211 119.543" stroke="#CD2C1A" stroke-width="40" stroke-linecap="round"/>
<path d="M637.017 268.863L646.065 291.261" stroke="#CD2C1A" stroke-width="40" stroke-linecap="round"/>
<path d="M713.918 171.807L711.204 200.426" stroke="#CD2C1A" stroke-width="40" stroke-linecap="round"/>
<path d="M858.673 231.531L867.72 250.196" stroke="#CD2C1A" stroke-width="40" stroke-linecap="round"/>
</svg>
