<svg width="555" height="254" viewBox="0 0 555 254" fill="none" xmlns="http://www.w3.org/2000/svg">
<path d="M235.736 56.8803C259.162 49.0806 341.683 24.8636 413.95 23.0137C476.1 21.4227 511.669 19.8999 534.52 20.0048C558.468 20.1146 571.002 21.9953 587.284 27.7657C592.748 29.702 598.232 32.1968 602.807 35.6755C607.346 39.127 612.976 45.1278 614.194 54.1963C615.433 63.4243 611.424 70.6461 607.923 74.9475C604.47 79.1912 600.121 82.4197 596.268 84.8436C581.484 94.1456 555.976 102.422 531.391 109.235C505.9 116.298 478.252 122.592 457.245 127.246C448.645 129.152 441.295 130.755 435.51 132.05L422.299 135.507L62.3032 229.721C55.9755 231.85 48.2866 233.83 40.9781 232.847C36.653 232.265 30.6051 230.382 25.8316 224.973C20.9776 219.472 19.9221 213.148 20.0041 208.731C20.1434 201.24 23.5817 194.58 25.5155 191.091C27.9219 186.75 30.9668 182.302 33.8584 178.324C40.1672 169.645 54.0995 145.274 91.3913 120.949C135.89 91.9247 204.051 67.4298 235.736 56.8803Z" stroke="#336FA8" stroke-width="40"/>
</svg>
