<svg width="1920" height="1063" viewBox="0 0 1920 1063" fill="none" xmlns="http://www.w3.org/2000/svg">
<path d="M93.5626 20.189C-28.8272 -29.6382 -119.333 24.3817 -149.287 57.62C-177.755 96.4876 -184.394 124.134 -184.155 133.099C-161.982 145.673 -121.958 141.25 -74.2834 114.187C-12.1442 78.9144 96.8871 88.8413 163.258 196.409C229.629 303.977 292.858 291.937 423.165 292.706C553.472 293.476 547.154 387.739 633.35 449.232C719.546 510.726 749.169 484.866 830.293 473.508C915.299 461.606 931.619 481.45 1002.85 580.077C1059.84 658.979 1135.31 694.177 1178.42 695.679C1235.62 691.427 1311.93 648.625 1429.61 763.942C1545.79 877.789 1553.3 848.826 1713.44 876.661C1841.56 898.93 1905.39 992.26 1927.21 1033.53C1945.06 1062.33 1993.26 1079.7 2014.34 1034.07C2040.7 977.025 1885.46 798.142 1762.83 781.935C1640.02 765.704 1510.55 759.385 1464.52 671C1418.48 582.614 1197.33 596.552 1148.79 574.592C1115.57 559.562 1014.04 367.811 859.392 386.558C704.74 405.305 685.516 372.653 620.876 300.842C556.235 229.031 553.983 200.723 385.345 203.921C216.708 207.118 246.55 82.4729 93.5626 20.189Z" fill="#CD2D1A"/>
</svg>
